<svg width="175" height="64" viewBox="0 0 175 64" fill="none" xmlns="http://www.w3.org/2000/svg">
<g id="Logo Main">
<path id="Vector" d="M7.25904 31.0332C7.92472 31.5087 8.81228 31.7306 10.0168 31.7306C10.5874 31.7306 11.158 31.6672 11.7603 31.5404C12.3626 31.4136 12.8697 31.2234 13.3452 31.0332C13.5988 31.2868 13.8524 31.6355 14.0109 32.0159C14.2011 32.3962 14.2962 32.84 14.2962 33.3472C14.2962 34.3616 13.8524 35.1857 12.9331 35.8514C12.0139 36.5171 10.5557 36.8341 8.55869 36.8341C5.89599 36.8341 3.83556 36.2318 2.28232 35.0589C0.760773 33.8544 0 31.8891 0 29.1313V6.02279C0.253591 5.95939 0.665676 5.86429 1.17286 5.7692C1.68004 5.6741 2.25062 5.6107 2.8529 5.6107C4.02576 5.6107 4.88163 5.83259 5.4522 6.27638C5.99109 6.72016 6.27637 7.48094 6.27637 8.5904V12.7746H13.6622C13.8207 13.0282 13.9792 13.4086 14.106 13.8207C14.2328 14.2645 14.2962 14.74 14.2962 15.2155C14.2962 16.103 14.106 16.737 13.6939 17.1174C13.2818 17.5295 12.7429 17.7197 12.0773 17.7197H6.27637V28.6875C6.27637 29.7969 6.62506 30.5577 7.25904 31.0332Z" fill="#9393F9"/>
<path id="Vector_2" d="M52.8419 27.0708C53.3174 28.7826 54.1733 30.0188 55.4729 30.7796C56.7409 31.5404 58.3258 31.9208 60.1961 31.9208C61.5908 31.9208 62.8905 31.6989 64.095 31.2868C65.2996 30.8747 66.2505 30.4309 66.9796 29.9554C67.4551 30.209 67.8355 30.5894 68.1525 31.0649C68.4695 31.5404 68.5963 32.0475 68.5963 32.5864C68.5963 33.2521 68.3744 33.8544 67.9306 34.3616C67.4868 34.8687 66.8528 35.3125 66.0604 35.6929C65.2679 36.0733 64.3486 36.3586 63.2709 36.5488C62.1931 36.739 61.0519 36.8658 59.784 36.8658C57.8187 36.8658 56.0118 36.6122 54.3635 36.0733C52.7468 35.5344 51.3521 34.7103 50.1792 33.6325C49.0064 32.5547 48.1188 31.1917 47.4531 29.575C46.7874 27.9584 46.4705 26.0882 46.4705 23.9326C46.4705 21.8405 46.7874 20.0337 47.4214 18.5121C48.0554 16.9589 48.9113 15.6909 50.0207 14.6449C51.0985 13.5988 52.3664 12.838 53.8246 12.3309C55.251 11.8237 56.8043 11.5701 58.3892 11.5701C60.0376 11.5701 61.5274 11.8237 62.9222 12.3626C64.2852 12.8697 65.4581 13.5988 66.4407 14.5181C67.4234 15.4373 68.1842 16.5468 68.7231 17.8465C69.2619 19.1461 69.5472 20.5409 69.5472 22.0624C69.5472 23.0134 69.2936 23.7107 68.8182 24.1862C68.3427 24.6617 67.6453 24.947 66.7894 25.1055L52.8419 27.0708ZM58.4209 16.3566C56.7726 16.3566 55.4095 16.8955 54.3001 18.005C53.1906 19.0827 52.5566 20.636 52.4298 22.6647L63.5878 21.0163C63.461 19.7801 62.9539 18.7023 62.1297 17.7831C61.3055 16.8004 60.0693 16.3566 58.4209 16.3566Z" fill="#9393F9"/>
<path id="Vector_3" d="M93.2264 29.3848C93.2264 31.7306 92.3388 33.5691 90.5954 34.9004C88.8519 36.2318 86.316 36.8975 82.9559 36.8975C81.5929 36.8975 80.3249 36.8024 79.2155 36.5805C78.106 36.3903 77.1233 36.0733 76.2992 35.6929C75.475 35.3125 74.841 34.837 74.3972 34.2982C73.9535 33.7593 73.7316 33.1253 73.7316 32.4596C73.7316 31.8257 73.8584 31.2551 74.1436 30.8113C74.4289 30.3358 74.8093 29.9554 75.2848 29.6384C76.2358 30.2407 77.3135 30.7796 78.5181 31.2551C79.7543 31.7306 81.1491 31.9525 82.7657 31.9525C84.1288 31.9525 85.1749 31.7306 85.8722 31.2868C86.5696 30.843 86.9183 30.209 86.9183 29.3848C86.9183 28.0218 85.9039 27.1025 83.9069 26.6587L81.0857 25.9931C78.6132 25.4225 76.7747 24.5666 75.5701 23.4255C74.3655 22.2843 73.795 20.7628 73.795 18.8608C73.795 16.6736 74.6508 14.8985 76.426 13.5671C78.1694 12.2041 80.6102 11.5384 83.7801 11.5384C84.9847 11.5384 86.0941 11.6335 87.1402 11.8237C88.1545 12.0139 89.0421 12.2675 89.8029 12.6161C90.5637 12.9648 91.1342 13.3769 91.578 13.8841C91.9901 14.3596 92.212 14.9302 92.212 15.5641C92.212 16.1664 92.0852 16.7053 91.7999 17.1491C91.5463 17.5929 91.1976 17.9733 90.849 18.2268C90.532 18.0367 90.1516 17.8148 89.6761 17.6246C89.2006 17.4344 88.6617 17.2442 88.0594 17.0857C87.4572 16.9272 86.8549 16.7687 86.1892 16.6736C85.5235 16.5468 84.8896 16.4834 84.2556 16.4834C82.9559 16.4834 81.9099 16.7053 81.1808 17.1174C80.4517 17.5295 80.0713 18.1317 80.0713 18.8925C80.0713 19.4631 80.2932 19.9386 80.7053 20.2873C81.1174 20.6677 81.8465 20.9529 82.8925 21.2065L85.365 21.8088C88.1545 22.4428 90.1516 23.3621 91.3878 24.5983C92.6241 25.8029 93.2264 27.3878 93.2264 29.3848Z" fill="#9393F9"/>
<path id="Vector_4" d="M120.646 31.5087C120.646 32.2694 120.487 32.9034 120.139 33.3789C119.79 33.8544 119.315 34.2982 118.617 34.742C117.793 35.2808 116.684 35.788 115.289 36.2318C113.926 36.6756 112.309 36.8975 110.502 36.8975C106.476 36.8975 103.275 35.8514 100.929 33.791C98.5518 31.7306 97.3789 28.5607 97.3789 24.313C97.3789 22.0941 97.6959 20.1922 98.3299 18.6072C98.9638 17.0223 99.8197 15.6909 100.929 14.6449C102.007 13.5988 103.307 12.838 104.765 12.3309C106.255 11.8237 107.84 11.5701 109.551 11.5701C110.471 11.5701 111.326 11.6652 112.119 11.8554C112.911 12.0456 113.64 12.2675 114.274 12.5211V3.42348C114.528 3.32838 114.94 3.23329 115.447 3.13819C115.954 3.04309 116.525 3.01139 117.127 3.01139C118.332 3.01139 119.219 3.23329 119.758 3.67707C120.297 4.12085 120.582 4.88163 120.582 5.99109V31.5087H120.646ZM114.306 17.6563C113.799 17.3393 113.228 17.1174 112.531 16.8955C111.865 16.7053 111.136 16.5785 110.375 16.5785C108.505 16.5785 106.952 17.1808 105.684 18.3853C104.448 19.5899 103.814 21.5869 103.814 24.313C103.814 26.9123 104.416 28.7826 105.589 29.9871C106.793 31.1917 108.41 31.7623 110.439 31.7623C111.326 31.7623 112.055 31.6672 112.689 31.4453C113.323 31.2551 113.831 31.0015 114.274 30.7479V17.6563H114.306Z" fill="#9393F9"/>
<path id="Vector_5" d="M136.305 11.5701C139.602 11.5701 142.233 12.2675 144.166 13.6939C146.132 15.0887 147.114 17.2759 147.114 20.2239V31.8574C147.114 32.6498 146.924 33.3155 146.512 33.7593C146.1 34.2348 145.593 34.6469 144.991 35.0272C144.04 35.5978 142.867 36.0416 141.409 36.3903C139.982 36.739 138.334 36.8975 136.464 36.8975C133.104 36.8975 130.473 36.2635 128.539 34.9638C126.605 33.6642 125.654 31.7306 125.654 29.163C125.654 26.9123 126.352 25.2006 127.778 23.996C129.205 22.7915 131.265 22.0624 133.991 21.8088L140.87 21.1114V20.1922C140.87 18.9242 140.394 17.9733 139.475 17.371C138.556 16.7687 137.256 16.4517 135.576 16.4517C134.276 16.4517 132.977 16.6102 131.74 16.9272C130.504 17.2442 129.395 17.6246 128.412 18.1C128.032 17.8465 127.746 17.4661 127.493 17.0223C127.239 16.5785 127.112 16.0713 127.112 15.5324C127.112 14.8668 127.271 14.3279 127.588 13.8841C127.905 13.472 128.412 13.0916 129.109 12.7429C130.092 12.3309 131.202 12.0456 132.438 11.8237C133.769 11.6652 135.037 11.5701 136.305 11.5701ZM136.495 32.0475C137.478 32.0475 138.366 31.9524 139.158 31.7623C139.95 31.5721 140.553 31.3502 140.933 31.0966V25.5176L136.052 25.9614C134.72 26.0882 133.674 26.3735 132.977 26.8489C132.279 27.2927 131.931 28.0218 131.931 28.9728C131.931 29.9554 132.279 30.7162 133.008 31.2234C133.738 31.794 134.91 32.0475 136.495 32.0475Z" fill="#9393F9"/>
<path id="Vector_6" d="M157.036 30.3992C156.244 28.7192 155.261 26.4685 154.183 23.6157C153.074 20.7628 151.964 17.3076 150.855 13.2501C151.204 12.838 151.647 12.4894 152.25 12.2041C152.852 11.9188 153.518 11.792 154.215 11.792C155.071 11.792 155.8 11.9822 156.339 12.3943C156.878 12.8063 157.322 13.5037 157.67 14.5498C159.255 19.6216 161.03 24.7568 163.059 29.9554H163.249C163.693 28.846 164.137 27.578 164.644 26.1833C165.119 24.7885 165.595 23.2987 166.039 21.7454C166.483 20.1922 166.926 18.6389 167.307 17.054C167.719 15.469 168.067 13.9475 168.353 12.4894C168.765 12.2992 169.177 12.109 169.621 11.9822C170.064 11.8554 170.54 11.792 171.047 11.792C171.903 11.792 172.664 11.9822 173.298 12.3943C173.932 12.8063 174.249 13.4403 174.249 14.3596C174.249 15.3739 174.027 16.7687 173.583 18.6072C173.139 20.4458 172.569 22.4111 171.84 24.5032C171.111 26.5953 170.318 28.7192 169.399 30.843C168.48 32.9668 167.592 34.837 166.673 36.4537C164.929 39.5285 163.344 41.8425 161.918 43.364C160.491 44.8856 159.097 45.6464 157.702 45.6464C156.624 45.6464 155.768 45.3294 155.103 44.7271C154.437 44.0931 154.025 43.3323 153.866 42.3814C154.405 41.9059 154.976 41.367 155.578 40.733C156.18 40.0991 156.783 39.4651 157.385 38.736C157.987 38.0386 158.558 37.3096 159.097 36.5805C159.636 35.8514 160.111 35.1223 160.491 34.425C160.174 34.3299 159.889 34.2031 159.604 34.0446C159.319 33.8861 159.033 33.6642 158.748 33.3789C158.463 33.0619 158.146 32.6815 157.829 32.2377C157.702 31.7306 157.385 31.1283 157.036 30.3992Z" fill="#9393F9"/>
<g id="Group">
<path id="Vector_7" d="M31.8256 50.528C31.3819 50.528 30.9381 50.5914 30.5577 50.7499C30.1773 50.9084 29.8286 51.1303 29.5433 51.4156C29.258 51.7008 29.0361 52.0495 28.8776 52.4933C28.7192 52.9054 28.6241 53.4126 28.6241 53.9832C28.6241 55.1243 28.9093 55.9485 29.5116 56.5191C30.1139 57.0897 30.8747 57.3749 31.8256 57.3749C32.3645 57.3749 32.8083 57.3115 33.2204 57.1531C33.6008 56.9946 33.9495 56.8678 34.2665 56.6776C34.4883 56.8361 34.6468 56.9946 34.7736 57.2164C34.9004 57.4066 34.9638 57.6285 34.9638 57.9138C34.9638 58.421 34.6468 58.8648 34.0446 59.1818C33.4423 59.5305 32.6181 59.689 31.5721 59.689C30.7162 59.689 29.892 59.5622 29.1946 59.3403C28.4656 59.1184 27.8633 58.738 27.3244 58.2625C26.8172 57.787 26.4051 57.1848 26.1198 56.4557C25.8346 55.7266 25.7078 54.9024 25.7078 53.9515C25.7078 53.0005 25.8663 52.1446 26.1515 51.4156C26.4685 50.6865 26.8806 50.0842 27.3878 49.6087C27.9267 49.1332 28.529 48.7846 29.2263 48.531C29.9237 48.3091 30.6845 48.1823 31.477 48.1823C32.4913 48.1823 33.3155 48.3725 33.9178 48.7212C34.52 49.0698 34.837 49.5136 34.837 50.0208C34.837 50.2744 34.7736 50.4963 34.6468 50.6865C34.52 50.8767 34.3616 51.0352 34.2031 51.162C33.8861 51.0035 33.5691 50.845 33.1887 50.6865C32.8083 50.6231 32.3645 50.528 31.8256 50.528Z" fill="#66CCFF"/>
<path id="Vector_8" d="M42.9203 59.4988C42.6984 59.5305 42.4131 59.5622 42.1595 59.5622C41.6206 59.5622 41.2086 59.4671 40.955 59.2769C40.7014 59.0867 40.5746 58.738 40.5746 58.2308V44.5369C40.7014 44.5052 40.8599 44.4418 41.1135 44.4101C41.3354 44.3784 41.6206 44.3467 41.8742 44.3467C42.4131 44.3467 42.8252 44.4418 43.0788 44.632C43.3324 44.8222 43.4592 45.1709 43.4592 45.6781V59.372C43.3324 59.4037 43.1422 59.4354 42.9203 59.4988Z" fill="#66CCFF"/>
<path id="Vector_9" d="M51.9544 55.2828C52.1763 56.0753 52.5567 56.6142 53.159 56.9628C53.7296 57.3115 54.4586 57.5017 55.3145 57.5017C55.9485 57.5017 56.5508 57.4066 57.0896 57.2164C57.6285 57.0262 58.0723 56.8361 58.421 56.6142C58.6429 56.741 58.8014 56.8995 58.9599 57.1213C59.0867 57.3432 59.1501 57.5651 59.1501 57.8187C59.1501 58.1357 59.055 58.3893 58.8331 58.6429C58.6429 58.8648 58.3576 59.0867 57.9772 59.2452C57.6285 59.4037 57.1847 59.5305 56.7092 59.6256C56.2338 59.7207 55.6949 59.7523 55.1243 59.7523C54.2367 59.7523 53.4126 59.6256 52.6518 59.372C51.9227 59.1184 51.2887 58.7697 50.7499 58.2625C50.211 57.7553 49.7989 57.153 49.5136 56.424C49.2283 55.6949 49.0698 54.839 49.0698 53.8564C49.0698 52.9054 49.2283 52.0812 49.5136 51.3839C49.7989 50.6865 50.211 50.0842 50.6865 49.6087C51.1936 49.1332 51.7642 48.7845 52.3982 48.5627C53.0639 48.3408 53.7613 48.214 54.4903 48.214C55.2511 48.214 55.9168 48.3408 56.5508 48.5627C57.1847 48.7845 57.7236 49.1332 58.1674 49.5453C58.6112 49.9574 58.9599 50.4646 59.2135 51.0669C59.467 51.6691 59.5938 52.3031 59.5938 52.9688C59.5938 53.3809 59.4987 53.7296 59.2769 53.9198C59.055 54.1417 58.738 54.2684 58.3576 54.3318L51.9544 55.2828ZM54.4903 50.4012C53.7296 50.4012 53.1273 50.6548 52.6201 51.1303C52.1129 51.6374 51.8276 52.3348 51.7642 53.2541L56.836 52.4933C56.7726 51.9227 56.5508 51.4472 56.1704 51.0035C55.8217 50.6231 55.2511 50.4012 54.4903 50.4012Z" fill="#66CCFF"/>
<path id="Vector_10" d="M69.1352 48.214C70.6251 48.214 71.8296 48.531 72.7172 49.1649C73.6047 49.7989 74.0485 50.7816 74.0485 52.1446V57.4383C74.0485 57.8187 73.9534 58.104 73.7632 58.2942C73.573 58.5161 73.3512 58.7063 73.0659 58.8648C72.6538 59.1184 72.0832 59.3403 71.4492 59.4671C70.7835 59.6256 70.0545 59.689 69.1986 59.689C67.6771 59.689 66.4725 59.4037 65.5849 58.8014C64.6974 58.1991 64.2853 57.3432 64.2853 56.1704C64.2853 55.156 64.6023 54.3635 65.2679 53.8247C65.9019 53.2858 66.8529 52.9371 68.0891 52.842L71.2273 52.525V52.1129C71.2273 51.5423 71.0054 51.0986 70.5933 50.845C70.1813 50.5597 69.579 50.4329 68.8182 50.4329C68.2159 50.4329 67.6454 50.4963 67.0748 50.6548C66.5042 50.8133 65.997 50.9718 65.5532 51.1937C65.3947 51.0669 65.2362 50.9084 65.1411 50.6865C65.0144 50.4963 64.9827 50.2427 64.9827 50.0208C64.9827 49.7038 65.046 49.4819 65.2045 49.2917C65.363 49.1015 65.5849 48.943 65.9019 48.7845C66.3457 48.5943 66.8529 48.4676 67.4235 48.3725C67.9623 48.2774 68.5329 48.214 69.1352 48.214ZM69.2303 57.5334C69.6741 57.5334 70.0862 57.5017 70.4349 57.4066C70.8152 57.3115 71.0688 57.2164 71.2273 57.0896V54.5537L69.0084 54.7439C68.4061 54.8073 67.9306 54.9341 67.6137 55.156C67.2967 55.3462 67.1382 55.6949 67.1382 56.1387C67.1382 56.5825 67.2967 56.9312 67.6454 57.153C67.9623 57.4066 68.4695 57.5334 69.2303 57.5334Z" fill="#66CCFF"/>
<path id="Vector_11" d="M86.6013 50.9718C86.221 50.6548 85.7138 50.528 85.0798 50.528C84.636 50.528 84.2239 50.5914 83.8435 50.6865C83.4632 50.7816 83.1462 50.9401 82.8609 51.0986V59.372C82.7341 59.4037 82.5439 59.4354 82.322 59.4988C82.1001 59.5305 81.8465 59.5622 81.5295 59.5622C80.9906 59.5622 80.6103 59.4671 80.325 59.2769C80.0714 59.0867 79.9446 58.738 79.9446 58.2308V50.8767C79.9446 50.4963 80.008 50.211 80.1665 49.9891C80.325 49.7672 80.5469 49.5453 80.8638 49.3234C81.3076 49.0064 81.8782 48.7529 82.639 48.5627C83.3681 48.3725 84.1922 48.2457 85.0481 48.2457C86.633 48.2457 87.8376 48.5944 88.6935 49.2917C89.5493 49.9891 89.9931 51.0035 89.9931 52.3348V59.372C89.8663 59.4037 89.6761 59.4354 89.4542 59.4988C89.2324 59.5305 88.9471 59.5622 88.6935 59.5622C88.1546 59.5622 87.7425 59.4671 87.4889 59.2769C87.2353 59.0867 87.1085 58.738 87.1085 58.2308V52.4299C87.1719 51.7642 86.9817 51.2888 86.6013 50.9718Z" fill="#66CCFF"/>
<path id="Vector_12" d="M95.9525 45.3294C95.9525 44.8856 96.111 44.5052 96.428 44.1882C96.745 43.8712 97.1254 43.7127 97.6326 43.7127C98.1397 43.7127 98.5201 43.8712 98.8371 44.1882C99.1541 44.5052 99.2809 44.8856 99.2809 45.3294C99.2809 45.7732 99.1224 46.1852 98.8371 46.4705C98.5201 46.7875 98.1397 46.946 97.6326 46.946C97.1254 46.946 96.745 46.7875 96.428 46.4705C96.111 46.1535 95.9525 45.7732 95.9525 45.3294ZM96.1744 48.6261C96.3012 48.5944 96.4597 48.5627 96.7133 48.4993C96.9352 48.4676 97.2205 48.4359 97.4741 48.4359C98.0129 48.4359 98.425 48.531 98.6786 48.7212C98.9322 48.9113 99.059 49.26 99.059 49.7672V59.3403C98.9322 59.372 98.742 59.4037 98.5201 59.4671C98.2982 59.4988 98.0129 59.5305 97.7593 59.5305C97.2205 59.5305 96.8084 59.4354 96.5548 59.2452C96.3012 59.055 96.1744 58.7063 96.1744 58.1991V48.6261Z" fill="#66CCFF"/>
<path id="Vector_13" d="M111.802 50.9718C111.421 50.6548 110.914 50.528 110.28 50.528C109.836 50.528 109.424 50.5914 109.044 50.6865C108.664 50.7816 108.347 50.9401 108.061 51.0986V59.372C107.935 59.4037 107.744 59.4354 107.522 59.4988C107.301 59.5305 107.047 59.5622 106.73 59.5622C106.191 59.5622 105.811 59.4671 105.525 59.2769C105.272 59.0867 105.145 58.738 105.145 58.2308V50.8767C105.145 50.4963 105.208 50.211 105.367 49.9891C105.525 49.7672 105.747 49.5453 106.064 49.3234C106.508 49.0064 107.079 48.7529 107.839 48.5627C108.568 48.3725 109.393 48.2457 110.249 48.2457C111.833 48.2457 113.038 48.5944 113.894 49.2917C114.75 49.9891 115.194 51.0035 115.194 52.3348V59.372C115.067 59.4037 114.877 59.4354 114.655 59.4988C114.433 59.5305 114.147 59.5622 113.894 59.5622C113.355 59.5622 112.943 59.4671 112.689 59.2769C112.436 59.0867 112.309 58.738 112.309 58.2308V52.4299C112.372 51.7642 112.182 51.2888 111.802 50.9718Z" fill="#66CCFF"/>
<path id="Vector_14" d="M128.222 58.4527C127.905 58.6112 127.556 58.738 127.144 58.8331C126.732 58.9282 126.257 58.9916 125.749 58.9916C125.052 58.9916 124.418 58.8965 123.816 58.7063C123.213 58.5161 122.675 58.1991 122.199 57.787C121.755 57.3749 121.375 56.8044 121.121 56.1387C120.868 55.473 120.709 54.6171 120.709 53.6662C120.709 52.7786 120.836 51.9861 121.121 51.3205C121.375 50.6548 121.755 50.0842 122.262 49.6087C122.77 49.1649 123.34 48.8163 124.038 48.5944C124.735 48.3725 125.496 48.2457 126.32 48.2457C127.112 48.2457 127.841 48.3408 128.507 48.531C129.173 48.7212 129.712 48.9431 130.092 49.2283C130.377 49.4185 130.599 49.6087 130.758 49.8306C130.916 50.0525 131.011 50.3378 131.011 50.6865V59.5305C131.011 60.3229 130.885 60.9886 130.599 61.5592C130.314 62.1298 129.934 62.5736 129.458 62.9539C128.983 63.3026 128.412 63.5879 127.746 63.7464C127.081 63.9049 126.383 64 125.623 64C124.83 64 124.133 63.9366 123.562 63.7781C122.96 63.6196 122.548 63.4611 122.231 63.2709C121.724 62.9539 121.47 62.5102 121.47 62.003C121.47 61.7177 121.533 61.4641 121.66 61.2422C121.787 61.0203 121.914 60.8618 122.104 60.7667C122.516 61.0203 122.992 61.2105 123.53 61.4007C124.101 61.5909 124.703 61.686 125.337 61.686C126.257 61.686 126.954 61.4958 127.493 61.1471C128 60.7984 128.285 60.2278 128.285 59.4671V58.4527H128.222ZM126.257 56.7727C126.7 56.7727 127.081 56.7093 127.398 56.5825C127.715 56.4557 127.968 56.3289 128.222 56.1387V50.9718C128 50.845 127.746 50.7499 127.493 50.6548C127.208 50.5597 126.859 50.528 126.478 50.528C125.654 50.528 124.957 50.7816 124.45 51.2888C123.943 51.7959 123.689 52.5884 123.689 53.6662C123.689 54.2368 123.752 54.7439 123.879 55.1243C124.006 55.5364 124.196 55.8534 124.418 56.0753C124.64 56.3289 124.925 56.4874 125.242 56.6142C125.527 56.7093 125.876 56.7727 126.257 56.7727Z" fill="#66CCFF"/>
</g>
<path id="Vector_15" d="M34.1396 10.6825C35.7563 13.6305 38.1654 16.0396 41.1134 17.6563C38.1654 19.2729 35.7563 21.682 34.1396 24.63C32.523 21.682 30.1139 19.2729 27.1659 17.6563C30.1139 16.0396 32.5547 13.6305 34.1396 10.6825Z" fill="#66CCFF"/>
<path id="Vector_16" d="M25.993 4.59633C27.1659 6.72016 28.9093 8.49529 31.0331 9.63645C28.9093 10.8093 27.1342 12.5527 25.993 14.6766C24.8201 12.5527 23.0767 10.7776 20.9529 9.63645C23.0767 8.46359 24.8518 6.72016 25.993 4.59633Z" fill="#66CCFF"/>
<path id="Vector_17" d="M32.3328 0C33.0935 1.39475 34.2664 2.56761 35.6612 3.32838C34.2664 4.08915 33.0935 5.26201 32.3328 6.65676C31.572 5.26201 30.3991 4.08915 29.0044 3.32838C30.3991 2.56761 31.5403 1.39475 32.3328 0Z" fill="#66CCFF"/>
<path id="Vector_18" d="M42.4131 27.3878C42.0327 26.6587 41.3353 26.1516 40.5112 25.9931L40.3844 25.9614C39.1798 25.7395 37.9753 26.3735 37.4364 27.5463C36.0733 30.4626 32.9034 32.1109 29.7336 31.5404C26.5637 30.9698 24.1546 28.3388 23.8693 25.1372C23.7425 23.8375 22.8549 22.8549 21.6503 22.633L21.5236 22.6013C20.6994 22.4428 19.8752 22.6964 19.2412 23.267C18.6073 23.8375 18.2903 24.63 18.3537 25.4542C18.7658 31.2234 23.0451 35.9465 28.7509 36.9609C29.48 37.0877 30.2407 37.1511 30.9698 37.1511C35.8831 37.1511 40.4161 34.2982 42.4765 29.7018C42.8252 28.9728 42.7935 28.1169 42.4131 27.3878Z" fill="#66CCFF"/>
</g>
</svg>
